<svg width="24" height="24" viewBox="0 0 24 24" fill="none" xmlns="http://www.w3.org/2000/svg">
<path d="M10.0032 18C9.73817 18 9.50473 17.9075 9.30284 17.7226C9.10095 17.5377 9 17.3405 9 17.131C9 16.983 9.02524 16.8598 9.07571 16.7612C9.42902 15.9969 9.95899 14.7643 10.6656 13.0632L11.1199 11.9723C11.1451 11.8737 11.1199 11.8243 11.0442 11.8243C10.817 11.8243 10.3817 12.0277 9.73817 12.4345C9.64984 12.4838 9.58044 12.5085 9.52997 12.5085C9.37855 12.5085 9.30284 12.4653 9.30284 12.379C9.30284 12.2311 9.4858 11.9908 9.85173 11.6579C10.2303 11.3128 10.6782 10.9738 11.1956 10.641C11.7129 10.2958 12.1735 10.0431 12.5773 9.8829C12.653 9.85824 12.7098 9.84592 12.7476 9.84592C12.9621 9.84592 13.164 9.94453 13.3533 10.1418C13.5426 10.3267 13.6057 10.4931 13.5426 10.641L11.3659 15.8367C11.3155 15.923 11.2902 16.0462 11.2902 16.2065C11.2902 16.2558 11.3091 16.2989 11.347 16.3359C11.3849 16.3606 11.4227 16.3729 11.4606 16.3729C11.6372 16.3729 11.9274 16.225 12.3312 15.9291C12.735 15.6333 13.1073 15.319 13.4479 14.9861C13.4858 14.9492 13.511 14.9307 13.5237 14.9307C13.5741 14.9307 13.6183 14.9553 13.6562 15.0046C13.694 15.0416 13.7129 15.0847 13.7129 15.1341C13.7129 15.4176 13.4921 15.7935 13.0505 16.2619C12.6088 16.718 12.0915 17.1248 11.4984 17.4823C10.918 17.8274 10.4196 18 10.0032 18ZM13.6183 8.36672C13.3659 8.36672 13.1514 8.27427 12.9748 8.08937C12.8107 7.90447 12.7287 7.68875 12.7287 7.44222C12.7287 7.06009 12.8612 6.72727 13.1262 6.44376C13.4038 6.14792 13.7445 6 14.1483 6C14.4006 6 14.6025 6.10478 14.7539 6.31433C14.918 6.51156 15 6.74576 15 7.01695C15 7.37442 14.8612 7.68875 14.5836 7.95994C14.306 8.23112 13.9842 8.36672 13.6183 8.36672Z" />
</svg>
