<svg width="24" height="24" viewBox="0 0 24 24" fill="none" xmlns="http://www.w3.org/2000/svg">
<path d="M11.9999 14.0535C13.1724 14.0535 14.1229 13.103 14.1229 11.9306C14.1229 10.7581 13.1724 9.80762 11.9999 9.80762C10.8274 9.80762 9.87695 10.7581 9.87695 11.9306C9.87695 13.103 10.8274 14.0535 11.9999 14.0535Z" />
<path d="M23.4289 11.2478C23.1975 10.9729 17.7054 4.5 12 4.5C6.29456 4.5 0.802476 10.9729 0.571074 11.2478L0 11.9303L0.571074 12.6129C0.802476 12.8878 6.29456 19.3607 12 19.3607C17.7054 19.3607 23.1975 12.8878 23.4289 12.6129L24 11.9303L23.4289 11.2478ZM12 16.1762C9.65838 16.1762 7.75409 14.272 7.75409 11.9303C7.75409 9.58872 9.65838 7.68443 12 7.68443C14.3416 7.68443 16.2459 9.58872 16.2459 11.9303C16.2459 14.272 14.3416 16.1762 12 16.1762Z" />
</svg>
