<svg width="24" height="24" viewBox="0 0 24 24" fill="none" xmlns="http://www.w3.org/2000/svg">
<path d="M23.7241 20.88L17.3972 14.526C18.3234 13.061 18.8582 11.326 18.8582 9.467C18.8592 4.248 14.6287 0 9.42911 0C4.22955 0 0 4.248 0 9.468C0 14.689 4.22955 18.937 9.42911 18.937C11.1898 18.937 12.8361 18.45 14.2482 17.604L20.618 24L23.7241 20.88ZM3.51351 9.468C3.51351 6.195 6.16756 3.53 9.42811 3.53C12.6897 3.53 15.3437 6.194 15.3437 9.468C15.3437 12.743 12.6897 15.407 9.42811 15.407C6.16756 15.407 3.51351 12.743 3.51351 9.468Z" />
</svg>
