<svg viewBox="0 0 24 24" fill="none" xmlns="http://www.w3.org/2000/svg"><path fill-rule="evenodd" clip-rule="evenodd" d="M18.3 23H5.7c-.994 0-1.8-.821-1.8-1.833V6.5h16.2v14.667c0 1.012-.806 1.833-1.8 1.833zm-8.1-12.833a.909.909 0 0 0-.9-.917c-.497 0-.9.41-.9.917v8.25c0 .506.403.916.9.916s.9-.41.9-.916v-8.25zm5.4 0a.909.909 0 0 0-.9-.917c-.497 0-.9.41-.9.917v8.25c0 .506.403.916.9.916s.9-.41.9-.916v-8.25zM21 5.583H3V3.75h5.4V2.375C8.4 1.617 9.006 1 9.75 1h4.5c.742 0 1.35.615 1.35 1.375V3.75H21v1.833zM10.2 3.75h3.6v-.917h-3.6v.917z" fill="currentColor"/></svg>