<svg width="284" height="107" viewBox="0 0 284 107" fill="none" xmlns="http://www.w3.org/2000/svg">
<path d="M133.327 40.2002C130.275 40.383 127.268 42.1283 125.397 43.4575V41.5746C125.397 40.9398 124.884 40.4294 124.242 40.4294H119.628C118.987 40.4294 118.471 40.9398 118.471 41.5746V69.545C118.471 70.1819 118.987 70.6908 119.628 70.6908H124.242C124.884 70.6908 125.397 70.1819 125.397 69.545V50.2132C126.435 49.3428 129.66 46.9242 133.501 46.5882C134.092 46.533 134.548 46.0398 134.548 45.4428V41.346C134.548 41.0242 134.421 40.7262 134.185 40.5142C133.961 40.2934 133.643 40.1731 133.327 40.2002ZM97.3005 57.5856C94.5864 57.8418 93.3011 59.0824 93.3011 61.4699C93.3011 62.9423 93.7021 65.4215 96.3885 65.4215C99.588 65.4215 103.925 64.2147 103.975 64.2027V57.2308L97.3005 57.5856ZM110.889 49.9512V70.0147C110.889 70.3527 110.742 70.6679 110.491 70.8835C110.24 71.1032 109.904 71.2012 109.579 71.1584C107.231 70.8246 106.116 70.0908 105.003 69.2382C104.953 69.2595 99.7631 71.3543 95.1188 71.3543C89.5323 71.3543 86.3271 67.8251 86.3271 61.6611C86.3271 55.6392 89.2625 52.9736 96.4579 52.4356L103.975 51.834V50.0084C103.975 47.6975 102.6 46.3726 100.211 46.3726C96.9193 46.3726 92.2188 46.757 89.7183 46.9808C89.4016 47.0136 89.088 46.9152 88.8459 46.7054C88.6167 46.5032 88.4713 46.198 88.4547 45.8903L88.3104 42.0518C88.2797 41.4684 88.7073 40.9584 89.2708 40.871C91.5093 40.5168 97.0937 39.7038 100.578 39.7038C107.615 39.7038 110.889 42.9627 110.889 49.9512ZM14.8735 35.5174H12.3422C9.51927 35.5174 7.90937 35.7324 7.09427 35.8928V47.8486C8.44427 47.9434 11.0443 48.0799 14.5375 48.0418C19.0437 47.9955 21.8473 45.6038 21.8473 41.8043C21.8473 38.7658 20.014 35.5174 14.8735 35.5174V35.5174ZM29.4213 69.083C29.5719 69.4351 29.5369 69.8439 29.3339 70.1742C29.112 70.5007 28.7511 70.6908 28.3631 70.6908H23.0016C22.5453 70.6908 22.1292 70.4251 21.9547 70.0095L15.0833 54.5507C11.663 54.5256 8.69531 54.345 7.09427 54.2299V69.545C7.09427 70.1819 6.58593 70.6908 5.95156 70.6908H1.1599C0.520312 70.6908 0 70.1819 0 69.545V30.7684C0 30.1814 0.441667 29.6912 1.02552 29.6251C7.18229 28.9299 12.1047 28.8584 13.9323 28.8584C14.562 28.8584 14.8917 28.8636 14.8917 28.8636C26.7052 28.8636 29.1792 35.8387 29.1792 41.6788C29.1792 46.5584 26.8505 50.0851 22.0604 52.4606L29.4213 69.083ZM164.073 40.8736C163.861 40.5934 163.528 40.4294 163.173 40.4294H158.683C158.163 40.4294 157.713 40.7783 157.577 41.2835L151.565 63.9595H151.099L145.08 41.2835C144.951 40.7783 144.492 40.4294 143.969 40.4294H139.491C139.131 40.4294 138.795 40.5934 138.577 40.8736C138.364 41.1579 138.288 41.5231 138.375 41.8642L144.997 67.298C145.328 68.5595 146.492 70.6908 148.799 70.6908H150.084C149.972 71.1194 149.859 71.5746 149.732 71.9632L149.672 72.1559C149.311 73.3288 148.772 75.1023 145.496 75.1023L139.771 74.7496C139.44 74.7262 139.131 74.8428 138.899 75.0746C138.664 75.3043 138.539 75.6204 138.555 75.947L138.695 78.946C138.713 79.4548 139.068 79.8835 139.567 80.0084C141.255 80.4262 144.479 80.9122 147.133 81.0127C147.26 81.0215 147.372 81.0215 147.496 81.0215C151.816 81.0215 154.751 78.2256 156.229 72.7204C157.944 66.2731 160.089 57.9788 161.66 51.9199C162.369 49.1923 162.98 46.845 163.416 45.1699L164.279 41.869C164.377 41.5231 164.292 41.1579 164.073 40.8736V40.8736ZM53.8235 55.4127C53.8235 48.6418 51.9839 46.0095 47.2776 46.0095C42.3969 46.0095 40.662 48.4674 40.662 55.4127C40.662 61.7079 41.7156 65.1142 47.2776 65.1142C52.7511 65.1142 53.8235 61.5554 53.8235 55.4127V55.4127ZM60.8541 55.4127C60.8541 66.436 56.6645 71.3543 47.2776 71.3543C37.8401 71.3543 33.6307 66.436 33.6307 55.4127C33.6307 44.5475 37.8401 39.7038 47.2776 39.7038C56.5421 39.7038 60.8541 44.6892 60.8541 55.4127ZM82.6745 65.7799L82.8745 69.5819C82.9031 70.1491 82.5 70.6627 81.9432 70.7674C80.3369 71.0616 78.1281 71.4256 76.7396 71.4256C69.7672 71.4256 67.6427 68.7575 67.6427 60.0246V46.6778H64.9708C64.3349 46.6778 63.8219 46.157 63.8219 45.5215V41.5746C63.8219 40.9398 64.3349 40.4294 64.9708 40.4294H67.6427V35.7351C67.6427 35.2038 68.0068 34.7423 68.5161 34.6194L73.1369 33.4928C73.4771 33.4147 73.8407 33.4876 74.1161 33.7032C74.3937 33.9236 74.5573 34.2543 74.5573 34.609V40.4294H81.6011C82.2303 40.4294 82.7427 40.9398 82.7427 41.5746V45.5215C82.7427 46.157 82.2303 46.6778 81.6011 46.6778H74.5573V59.048C74.5573 63.3267 74.7079 64.8106 77.7104 64.8106C78.8161 64.8106 80.5531 64.7382 81.4828 64.6882C82.0989 64.6751 82.6563 65.1376 82.6745 65.7799Z" fill="#274492"/>
<path d="M230.596 92.9833C208.571 92.9833 190.641 75.0547 190.641 53.0167C190.641 30.9812 208.571 13.0558 230.596 13.0558C252.633 13.0558 270.556 30.9812 270.556 53.0167C270.556 75.0547 252.633 92.9833 230.596 92.9833V92.9833ZM283.803 51.6781L283.792 51.5281L283.677 51.462C281.416 50.0907 278.449 49.3183 275.549 49.2557C275.492 48.8708 275.127 46.1541 275.083 45.7672C277.856 44.9817 280.513 43.4755 282.376 41.5474L282.473 41.4578L282.445 41.3099C282.308 40.2766 281.915 38.8364 281.559 37.9631L281.499 37.8323L281.359 37.7968C278.808 37.0688 275.753 37.0875 272.948 37.7968C272.815 37.4369 271.777 34.9328 271.629 34.5818C274.099 33.075 276.267 30.9402 277.568 28.6266L277.639 28.5151L277.587 28.3703C277.213 27.4812 276.46 26.1911 275.86 25.3755L275.779 25.2635H275.625C273 25.2063 270.068 26.011 267.484 27.4022C267.257 27.0859 265.575 24.8959 265.345 24.5907C267.36 22.5146 268.897 19.8823 269.557 17.3078L269.596 17.1631L269.497 17.0541C268.897 16.2635 267.852 15.2021 267.067 14.5823L266.959 14.5011L266.811 14.523C264.231 15.1771 261.611 16.7214 259.528 18.7235C259.209 18.4802 257.027 16.7703 256.711 16.5135C258.101 14.0593 258.916 11.2192 258.916 8.60055C258.916 8.52708 258.903 8.24682 258.903 8.24682L258.792 8.16202C257.987 7.52922 256.711 6.79842 255.784 6.42189L255.657 6.37549L255.54 6.43802C253.223 7.72602 251.1 9.88068 249.609 12.3489C249.236 12.2047 246.58 11.0885 246.231 10.9364C246.58 9.54535 246.797 8.11255 246.797 6.68122C246.797 5.24068 246.624 3.82189 246.231 2.53802L246.197 2.40469L246.055 2.34949C245.179 1.97349 243.776 1.58855 242.739 1.43909L242.584 1.41455L242.492 1.51455C240.576 3.37242 239.072 6.01828 238.277 8.79535C237.881 8.72922 235.135 8.38855 234.717 8.34535C234.68 5.46775 233.905 2.52135 232.536 0.230687L232.468 0.100023L232.323 0.0937482C231.332 -0.0317184 229.831 -0.0317184 228.861 0.0937482L228.707 0.100023L228.639 0.230687C227.28 2.49682 226.513 5.44215 226.464 8.33642C226.064 8.38855 223.275 8.72922 222.871 8.79535C222.072 6.00468 220.564 3.34735 218.657 1.49895L218.551 1.39162L218.395 1.41455C217.368 1.56722 215.947 1.94895 215.069 2.30575L214.937 2.36308L214.885 2.49682C214.524 3.80108 214.332 5.23802 214.332 6.69215C214.332 8.09642 214.556 9.54016 214.885 10.9167C214.536 11.0672 211.856 12.2203 211.496 12.3656C209.993 9.89428 207.865 7.72602 205.555 6.42189L205.429 6.34842L205.284 6.39735C204.396 6.78695 203.111 7.52922 202.297 8.14015L202.171 8.21722C202.171 8.21722 202.171 8.52708 202.171 8.60055C202.171 11.1916 202.973 14.0421 204.352 16.5135C204.052 16.7625 202.036 18.3391 201.733 18.5839C199.657 16.5771 197.031 15.0328 194.44 14.362L194.308 14.335L194.208 14.4297C193.413 15.0249 192.344 16.0724 191.735 16.8662L191.644 16.9801L191.677 17.1192C192.325 19.6916 193.869 22.324 195.872 24.4188C195.653 24.7266 193.897 27.0125 193.653 27.3287C191.141 25.924 188.216 25.0954 185.536 25.1328L185.401 25.1391L185.313 25.2583C184.727 26.0385 183.985 27.2984 183.579 28.2583L183.521 28.3844L183.592 28.5151C184.877 30.8198 187.051 32.9719 189.532 34.4782C189.397 34.8323 188.38 37.312 188.224 37.6719C185.372 36.9651 182.332 36.9568 179.795 37.6964L179.659 37.7318L179.608 37.8541C179.235 38.7432 178.847 40.1453 178.699 41.2016L178.681 41.3459L178.783 41.4578C180.635 43.3615 183.293 44.8672 186.071 45.6385C186.013 46.0317 185.653 48.7749 185.605 49.1521C182.717 49.2068 179.745 49.9698 177.477 51.3312L177.352 51.4026L177.339 51.55C177.281 52.0464 177.244 52.6645 177.244 53.2896C177.244 53.9093 177.281 54.5219 177.339 55.0167L177.352 55.1583L177.477 55.2235C179.745 56.5812 182.692 57.3588 185.597 57.4016C185.653 57.7989 186.041 60.6167 186.091 61.0036C183.305 61.8208 180.668 63.3448 178.816 65.2468L178.716 65.3651L178.728 65.4932C178.891 66.5349 179.272 67.9697 179.631 68.8339L179.688 68.9631L179.82 69.0063C182.391 69.7401 185.431 69.7088 188.253 69.0063C188.397 69.3631 189.489 71.8583 189.639 72.2183C187.169 73.6979 185.005 75.8375 183.697 78.1516L183.636 78.2807L183.684 78.4131C184.063 79.3208 184.82 80.6063 185.423 81.4083L185.513 81.5229L185.643 81.5281C188.296 81.5656 191.227 80.7801 193.772 79.3755C194.009 79.674 195.729 81.9135 195.955 82.2192C193.957 84.2635 192.405 86.8849 191.745 89.4959L191.709 89.6292L191.795 89.7437C192.405 90.5249 193.46 91.5708 194.237 92.2036L194.352 92.3016L194.489 92.2557C197.064 91.6151 199.68 90.0812 201.783 88.0683C202.101 88.314 204.327 90.0271 204.655 90.2703C203.285 92.7844 202.487 95.6516 202.487 98.2615C202.487 98.3156 202.487 98.5542 202.487 98.5542L202.617 98.6521C203.392 99.2411 204.655 99.9615 205.599 100.386L205.729 100.433L205.865 100.366C208.185 99.0719 210.328 96.9005 211.831 94.3984C212.18 94.5411 214.623 95.5328 214.981 95.6755C214.632 97.0536 214.432 98.474 214.432 99.874C214.432 101.342 214.623 102.778 214.996 104.068L215.029 104.205L215.172 104.257C216.051 104.633 217.465 105.018 218.503 105.185L218.657 105.206L218.757 105.091C220.679 103.223 222.179 100.567 222.929 97.8167C223.333 97.8823 226.144 98.2802 226.536 98.3219C226.593 101.224 227.373 104.178 228.733 106.429L228.793 106.553L228.949 106.57C229.948 106.698 231.432 106.698 232.409 106.57L232.552 106.553L232.623 106.429C233.973 104.178 234.748 101.22 234.821 98.3052C235.213 98.251 237.847 97.8823 238.24 97.8167C239.016 100.614 240.527 103.246 242.448 105.112L242.553 105.206L242.681 105.195C243.731 105.03 245.153 104.661 246.036 104.301L246.163 104.238L246.207 104.109C246.58 102.808 246.749 101.382 246.749 99.9172C246.749 98.4995 246.551 97.0536 246.207 95.6625C246.568 95.526 249.121 94.4208 249.479 94.2609C250.983 96.7401 253.12 98.912 255.425 100.214L255.54 100.271L255.676 100.221C256.593 99.8427 257.889 99.0964 258.685 98.474L258.8 98.4068C258.8 98.4068 258.809 98.1005 258.809 98.0156C258.809 95.4604 258 92.6077 256.656 90.1077C256.957 89.8692 259.067 88.2297 259.367 87.988C261.473 89.9885 264.099 91.5276 266.673 92.1937L266.811 92.2312L266.916 92.1333C267.701 91.5167 268.771 90.4599 269.383 89.6948L269.477 89.5692L269.429 89.4437C268.789 86.8744 267.257 84.2448 265.249 82.1453C265.483 81.8364 267.184 79.6011 267.413 79.2839C269.963 80.688 272.893 81.4916 275.531 81.4355H275.676L275.763 81.3287C276.392 80.524 277.12 79.2651 277.499 78.3131L277.557 78.1927L277.488 78.0656C276.229 75.8 274.073 73.6432 271.604 72.0901C271.747 71.7359 272.756 69.2724 272.905 68.9188C275.705 69.6391 278.745 69.6635 281.303 68.9188L281.427 68.876L281.484 68.7489C281.859 67.8473 282.24 66.45 282.4 65.4135L282.415 65.2688L282.308 65.1593C280.455 63.2375 277.813 61.7484 275.057 60.9593C275.117 60.5749 275.492 57.9328 275.531 57.5432C278.449 57.4927 281.416 56.7151 283.677 55.3511L283.792 55.2787L283.803 55.1255C283.871 54.6453 283.896 54.0151 283.896 53.3964C283.896 52.774 283.871 52.1631 283.803 51.6781" fill="#F5A00F"/>
<path d="M258.567 42.2419C258.965 42.3758 259.123 42.8175 259.245 43.2514C261.323 50.2367 261.323 56.2123 259.245 63.2528C259.077 63.858 258.833 64.1908 258.511 64.3222C258.049 64.4638 257.54 64.1315 257.115 63.817L243.512 54.5851C242.989 54.2362 242.681 53.7607 242.681 53.2529C242.681 52.7523 242.981 52.2774 243.512 51.9138L257.115 42.6951C257.728 42.2528 258.208 42.1138 258.567 42.2419ZM253.581 73.0362C248.543 78.3414 243.383 81.3279 236.28 83.0299C235.677 83.182 235.261 83.1342 235.004 82.9206C234.631 82.608 234.68 81.9851 234.717 81.4476L235.895 65.0539C235.969 64.417 236.221 63.9347 236.669 63.6675C237.105 63.432 237.664 63.4518 238.215 63.7159L253.008 70.879C253.699 71.2195 254.068 71.5555 254.14 71.9232C254.212 72.3351 253.911 72.6976 253.581 73.0362V73.0362ZM230.571 62.693C225.272 62.693 220.965 58.3867 220.965 53.0925C220.965 49.8602 222.577 46.8596 225.285 45.0732C226.176 44.4763 227.38 44.7321 227.969 45.619C228.557 46.5138 228.319 47.7195 227.423 48.3081C225.805 49.3722 224.847 51.1586 224.847 53.0925C224.847 56.2451 227.417 58.8175 230.571 58.8175C233.731 58.8175 236.299 56.2451 236.299 53.0925C236.299 51.1586 235.34 49.3638 233.719 48.3029C232.827 47.7107 232.584 46.508 233.177 45.6159C233.763 44.7294 234.971 44.4763 235.859 45.0654C238.559 46.855 240.179 49.8523 240.179 53.0925C240.179 58.3867 235.868 62.693 230.571 62.693V62.693ZM226.355 83.1586C226.028 83.4232 225.576 83.3435 225.128 83.229C218.065 81.544 212.873 78.555 207.824 73.2279C207.456 72.846 207.281 72.5107 207.281 72.2091C207.281 72.155 207.281 72.1216 207.291 72.0623C207.36 71.596 207.931 71.3227 208.407 71.0924L223.197 63.9148C223.775 63.6456 224.332 63.6315 224.768 63.8888C225.195 64.1414 225.461 64.6222 225.511 65.2461L226.708 81.6638C226.755 82.4435 226.64 82.9206 226.355 83.1586V83.1586ZM204.052 63.9216C203.412 64.3602 202.936 64.518 202.573 64.3878C202.171 64.2487 202.036 63.806 201.909 63.37C199.817 56.393 199.817 50.4086 201.884 43.3716C202.063 42.7684 202.316 42.4362 202.637 42.319C203.111 42.1493 203.607 42.496 204.052 42.8014L217.64 52.0456C218.153 52.3851 218.452 52.8602 218.452 53.3737C218.452 53.867 218.153 54.3424 217.66 54.7014L204.052 63.9216ZM207.563 33.555H207.572C212.631 28.2409 217.809 25.2441 224.875 23.5503C225.311 23.4514 225.777 23.3675 226.088 23.646C226.388 23.8799 226.493 24.3607 226.437 25.1482L225.241 41.5305C225.204 42.1607 224.943 42.657 224.5 42.8992C224.069 43.1586 223.507 43.1451 222.945 42.867L208.164 35.7091C207.68 35.4695 207.117 35.2159 207.019 34.7279C206.972 34.3924 207.136 33.9993 207.563 33.555V33.555ZM235.02 23.5123C235.359 23.2367 235.807 23.3242 236.251 23.4165C243.313 25.1269 248.5 28.1107 253.563 33.4294C253.921 33.8086 254.115 34.1633 254.115 34.4774C254.115 34.507 254.105 34.5561 254.105 34.6018C253.997 35.0878 253.456 35.344 252.972 35.5763L238.183 42.7388C237.599 43.0143 237.053 43.0414 236.628 42.7763C236.193 42.5263 235.92 42.0403 235.872 41.4045L234.68 25.02C234.631 24.2378 234.737 23.755 235.02 23.5123V23.5123ZM230.596 17.8607C211.22 17.8607 195.449 33.6342 195.449 53.0159C195.449 72.4066 211.22 88.1758 230.596 88.1758C249.979 88.1758 265.755 72.4066 265.755 53.0159C265.755 33.6342 249.979 17.8607 230.596 17.8607" fill="#F5A00F"/>
</svg>
