<svg viewBox="0 0 42 42" fill="none" xmlns="http://www.w3.org/2000/svg">
<path d="M41.9475 20.3044V20.2519H41.895C41.0025 19.7269 39.8475 19.4119 38.6925 19.3594C38.6925 19.2019 38.535 18.1519 38.535 17.9944C39.6375 17.6794 40.6875 17.1019 41.4225 16.3144L41.475 16.2619V16.2094C41.4225 15.7894 41.265 15.2119 41.1075 14.8969V14.8444H41.055C40.0575 14.5819 38.85 14.5819 37.7475 14.8444C37.695 14.6869 37.275 13.7419 37.2225 13.5844C38.22 13.0069 39.06 12.1669 39.585 11.2219L39.6375 11.1694V11.1169C39.375 10.7494 39.06 10.2244 38.85 9.90938L38.7975 9.85688H38.745C37.695 9.85688 36.54 10.1719 35.5425 10.6969C35.4375 10.5919 34.8075 9.69938 34.7025 9.59438C35.49 8.75438 36.12 7.75688 36.3825 6.70688V6.65438L36.33 6.60188C36.0675 6.28688 35.7 5.86688 35.385 5.60438L35.3325 5.55188H35.28C34.2825 5.81437 33.2325 6.39188 32.3925 7.23188C32.2875 7.12688 31.395 6.44438 31.29 6.33938C31.815 5.39438 32.1825 4.23938 32.1825 3.24188C32.1825 3.18938 32.1825 3.08438 32.1825 3.08438L32.13 3.03188C31.815 2.76938 31.29 2.50688 30.9225 2.34938H30.8175C29.925 2.87438 29.085 3.71438 28.5075 4.65938C28.35 4.76438 27.3 4.29187 27.1425 4.23938C27.3 3.71438 27.3525 3.13688 27.3525 2.55938C27.3525 1.98188 27.3 1.45688 27.1425 0.931875V0.879375H27.09C26.7225 0.721875 26.1975 0.564375 25.7775 0.511875H25.725L25.6725 0.564375C24.9375 1.29938 24.3075 2.34938 23.9925 3.45188C23.835 3.45188 22.7325 3.29438 22.575 3.29438C22.575 2.13938 22.26 0.984375 21.735 0.091875L21.6825 0.039375H21.63C21.2625 -0.013125 20.6325 -0.013125 20.265 0.039375H20.2125L20.16 0.091875C19.635 0.984375 19.32 2.13938 19.32 3.29438C19.1625 3.29438 18.06 3.45188 17.9025 3.45188C17.5875 2.34938 17.01 1.29938 16.2225 0.564375L16.275 0.459375H16.2225C15.8025 0.511875 15.2775 0.669375 14.91 0.826875H14.8575V0.879375C14.7 1.40438 14.6475 1.98188 14.6475 2.50688C14.6475 3.08438 14.7525 3.60938 14.8575 4.18688C14.7 4.23938 13.65 4.71188 13.545 4.76438C12.9675 3.76688 12.1275 2.92688 11.1825 2.40188L11.13 2.34938H11.0775C10.71 2.50688 10.2375 2.76938 9.9225 3.03188L9.87 3.08438C9.87 3.08438 9.87 3.18938 9.87 3.24188C9.87 4.23938 10.185 5.39438 10.71 6.33938C10.605 6.44438 9.8175 7.07438 9.66 7.17938C8.82 6.39188 7.8225 5.76188 6.7725 5.49938H6.72L6.6675 5.55188C6.3525 5.76188 5.9325 6.18188 5.67 6.49688L5.6175 6.54938V6.60188C5.88 7.59938 6.4575 8.64938 7.245 9.48938C7.14 9.59438 6.4575 10.4869 6.3525 10.6444C5.355 10.0669 4.2 9.75188 3.15 9.80438H3.0975L3.045 9.85688C2.835 10.1719 2.52 10.6444 2.3625 11.0644V11.1169L2.415 11.1694C2.94 12.0619 3.78 12.9019 4.7775 13.5319C4.725 13.6894 4.305 14.6344 4.2525 14.7919C3.15 14.5294 1.9425 14.5294 0.945 14.7919H0.8925V14.8444C0.735 15.2119 0.5775 15.7369 0.525 16.1569V16.2094L0.5775 16.2619C1.3125 16.9969 2.3625 17.6269 3.465 17.8894C3.465 18.0469 3.3075 19.1494 3.3075 19.2544C2.1525 19.2544 0.9975 19.5694 0.105 20.0944L0.0525 20.1469V20.1994C0 20.4094 0 20.6719 0 20.9344C0 21.1969 0 21.4069 0.0525 21.6169V21.6694H0.105C0.9975 22.1944 2.1525 22.5094 3.3075 22.5094C3.3075 22.6669 3.465 23.7694 3.5175 23.9269C2.415 24.2419 1.365 24.8719 0.63 25.6069L0.5775 25.6594V25.7119C0.63 26.1319 0.7875 26.7094 0.945 27.0244V27.0769H0.9975C1.995 27.3919 3.2025 27.3394 4.305 27.0769C4.3575 27.2344 4.7775 28.1794 4.83 28.3369C3.8325 28.9144 2.9925 29.7544 2.4675 30.6994V30.8044C2.625 31.1719 2.94 31.6444 3.15 31.9594L3.2025 32.0119H3.255C4.305 32.0119 5.46 31.6969 6.4575 31.1719C6.5625 31.2769 7.245 32.1694 7.2975 32.2744C6.51 33.0619 5.88 34.1119 5.6175 35.1619V35.2144L5.67 35.2669C5.9325 35.5819 6.3 36.0019 6.615 36.2119L6.6675 36.2644H6.72C7.7175 36.0019 8.7675 35.4244 9.6075 34.6369C9.7125 34.7419 10.605 35.4244 10.7625 35.5294C10.2375 36.5269 9.9225 37.6294 9.9225 38.6794V38.7844H9.975C10.29 38.9944 10.7625 39.3094 11.13 39.4669H11.1825L11.235 39.4144C12.1275 38.8894 12.9675 38.0494 13.5975 37.0519C13.755 37.1044 14.7 37.5244 14.8575 37.5769C14.7 38.1019 14.6475 38.6794 14.6475 39.2044C14.6475 39.7819 14.7 40.3594 14.8575 40.8319V40.8844H14.91C15.2775 41.0419 15.8025 41.1994 16.2225 41.2519H16.275L16.3275 41.1994C17.0625 40.4644 17.6925 39.4144 17.955 38.3119C18.1125 38.3119 19.215 38.4694 19.3725 38.5219C19.3725 39.6769 19.6875 40.8319 20.2125 41.7244V41.7769H20.265C20.6325 41.8294 21.2625 41.8294 21.63 41.7769H21.6825L21.735 41.7244C22.26 40.8319 22.575 39.6769 22.575 38.5219C22.7325 38.5219 23.7825 38.3644 23.94 38.3119C24.255 39.4144 24.8325 40.4644 25.62 41.1994L25.6725 41.2519H25.725C26.145 41.1994 26.7225 41.0419 27.0375 40.8844H27.09V40.8319C27.2475 40.3069 27.3 39.7819 27.3 39.2044C27.3 38.6269 27.2475 38.1019 27.09 37.5244C27.2475 37.4719 28.245 37.0519 28.4025 36.9469C28.98 37.9444 29.82 38.7844 30.765 39.3094H30.87C31.2375 39.1519 31.7625 38.8894 32.0775 38.6269L32.13 38.5744C32.13 38.5744 32.13 38.4694 32.13 38.4169C32.13 37.4194 31.815 36.2644 31.29 35.3194C31.395 35.2144 32.235 34.5844 32.34 34.4794C33.18 35.2669 34.1775 35.8969 35.2275 36.1594H35.28L35.3325 36.1069C35.6475 35.8444 36.0675 35.4244 36.2775 35.1619L36.33 35.1094V35.0569C36.0675 34.0594 35.49 33.0094 34.7025 32.1694C34.8075 32.0644 35.49 31.1719 35.5425 31.0669C36.54 31.6444 37.695 31.9594 38.745 31.9069H38.7975L38.85 31.8544C39.1125 31.5394 39.375 31.0669 39.5325 30.6469V30.5944L39.48 30.5419C39.0075 29.6494 38.115 28.8094 37.17 28.1794C37.2225 28.0219 37.6425 27.0769 37.695 26.9194C38.7975 27.1819 40.005 27.2344 41.0025 26.9194H41.055V26.8669C41.2125 26.4994 41.37 25.9744 41.4225 25.5544V25.5019L41.37 25.4494C40.635 24.7144 39.585 24.0844 38.535 23.7694C38.535 23.6119 38.6925 22.5619 38.745 22.4044C39.9 22.4044 41.055 22.0894 41.9475 21.5644L42 21.5119V21.4594C42 21.4594 42 21.1969 42 20.9344C42 20.7244 42 20.4619 41.9475 20.3044ZM21 36.5269C12.3375 36.5269 5.25 29.4919 5.25 20.7769C5.25 12.1144 12.285 5.02688 21 5.02688C29.6625 5.02688 36.75 12.0619 36.75 20.7769C36.75 29.4919 29.6625 36.5269 21 36.5269Z" fill="#F7A81B"/>
<path d="M21.0002 6.96919C13.3877 6.96919 7.14019 13.1642 7.14019 20.8292C7.14019 28.4417 13.3352 34.6892 21.0002 34.6892C28.6127 34.6892 34.8602 28.4942 34.8602 20.8292C34.8602 13.1642 28.6652 6.96919 21.0002 6.96919ZM22.7327 9.17419C22.8902 9.06919 23.0477 9.12169 23.2052 9.12169C25.9877 9.80419 28.0352 10.9592 30.0302 13.0592C30.1877 13.2167 30.2402 13.3742 30.2402 13.4792V13.5317C30.1877 13.7417 29.9777 13.8467 29.7677 13.8992L23.9402 16.7342C23.7302 16.8392 23.5202 16.8392 23.3102 16.7342C23.1527 16.6292 23.0477 16.4192 22.9952 16.2092L22.5227 9.75169C22.5752 9.48919 22.6277 9.27919 22.7327 9.17419ZM11.9177 13.1642C13.9127 11.0642 15.9602 9.90919 18.7427 9.22669C18.9002 9.17419 19.1102 9.17419 19.2152 9.27919C19.3202 9.38419 19.3727 9.54169 19.3727 9.85669L18.9002 16.2617C18.9002 16.5242 18.7952 16.6817 18.5852 16.7867C18.4277 16.8917 18.2177 16.8917 17.9552 16.7867L12.1277 13.9517C11.9177 13.8467 11.7077 13.7417 11.6552 13.5842C11.7077 13.4792 11.7602 13.3217 11.9177 13.1642ZM10.5527 25.0817C10.2902 25.2392 10.1327 25.2917 9.97519 25.2392C9.81769 25.1867 9.76519 25.0292 9.71269 24.8192C8.87269 22.0892 8.87269 19.7267 9.71269 16.9442C9.76519 16.6817 9.87018 16.5767 10.0277 16.5242C10.2377 16.4717 10.3952 16.5767 10.6052 16.7342L15.9077 20.4092C16.1177 20.5667 16.2227 20.7242 16.2227 20.9342C16.2227 21.1442 16.1177 21.3017 15.9077 21.4592L10.5527 25.0817ZM19.3202 32.6942C19.2152 32.7992 19.0052 32.7467 18.8477 32.7467C16.0652 32.0642 14.0177 30.9092 12.0227 28.8092C11.8652 28.6517 11.8127 28.5467 11.8127 28.3892V28.3367C11.8652 28.1792 12.0752 28.0217 12.2327 27.9692L18.0602 25.1342C18.2702 25.0292 18.5327 25.0292 18.6902 25.1342C18.8477 25.2392 18.9527 25.3967 19.0052 25.6592L19.4777 32.1167C19.4777 32.3792 19.4252 32.5892 19.3202 32.6942ZM21.0002 24.6092C18.9002 24.6092 17.2202 22.9292 17.2202 20.8292C17.2202 19.5692 17.8502 18.3617 18.9002 17.6792C19.2677 17.4692 19.7402 17.5217 19.9502 17.8892C20.1602 18.2567 20.1077 18.7292 19.7402 18.9392C19.1102 19.3592 18.7427 20.0417 18.7427 20.8292C18.7427 22.0892 19.7402 23.0867 21.0002 23.0867C22.2602 23.0867 23.2577 22.0892 23.2577 20.8292C23.2577 20.0417 22.8902 19.3592 22.2602 18.9392C21.8927 18.7292 21.7877 18.2567 22.0502 17.8892C22.2602 17.5217 22.7327 17.4167 23.1002 17.6792C24.1502 18.3617 24.7802 19.5692 24.7802 20.8292C24.7802 22.9292 23.1002 24.6092 21.0002 24.6092ZM30.0827 28.7042C28.0877 30.8042 26.0927 31.9592 23.2577 32.6417C22.9952 32.6942 22.8377 32.6942 22.7327 32.5892C22.5752 32.4842 22.6277 32.2217 22.6277 32.0117L23.1002 25.5542C23.1527 25.2917 23.2052 25.1342 23.4152 25.0292C23.5727 24.9242 23.7827 24.9242 24.0452 25.0292L29.8727 27.8642C30.1352 28.0217 30.2927 28.1267 30.2927 28.2842C30.2927 28.4417 30.1877 28.5467 30.0827 28.7042ZM32.0252 16.5767C32.1827 16.6292 32.2352 16.7867 32.2877 16.9967C33.1277 19.7267 33.1277 22.0892 32.2877 24.8717C32.2352 25.1342 32.1302 25.2392 31.9727 25.2917C31.8152 25.3442 31.6052 25.2392 31.4477 25.0817L26.0927 21.4592C25.8827 21.3017 25.7777 21.1442 25.7777 20.9342C25.7777 20.7242 25.8827 20.5667 26.0927 20.4092L31.4477 16.7342C31.7102 16.5767 31.8677 16.5242 32.0252 16.5767Z" fill="#F7A81B"/>
</svg>
