<svg width="100" height="100" viewBox="0 0 100 100" fill="none" xmlns="http://www.w3.org/2000/svg">
<path d="M98.5 50C98.5 76.7858 76.7858 98.5 50 98.5C23.2142 98.5 1.5 76.7858 1.5 50C1.5 23.2142 23.2142 1.5 50 1.5C76.7858 1.5 98.5 23.2142 98.5 50Z" fill="#D6F5FF" fill-opacity="0.3" stroke="#20BBE6" stroke-width="3"/>
<mask id="path-2-inside-1" fill="white">
<path fill-rule="evenodd" clip-rule="evenodd" d="M50 97C75.9574 97 97 75.9574 97 50C97 24.0426 75.9574 3 50 3C24.0426 3 3 24.0426 3 50C3 75.9574 24.0426 97 50 97ZM50 100C77.6142 100 100 77.6142 100 50C100 22.3858 77.6142 0 50 0C22.3858 0 0 22.3858 0 50C0 77.6142 22.3858 100 50 100Z"/>
</mask>
<path fill-rule="evenodd" clip-rule="evenodd" d="M50 97C75.9574 97 97 75.9574 97 50C97 24.0426 75.9574 3 50 3C24.0426 3 3 24.0426 3 50C3 75.9574 24.0426 97 50 97ZM50 100C77.6142 100 100 77.6142 100 50C100 22.3858 77.6142 0 50 0C22.3858 0 0 22.3858 0 50C0 77.6142 22.3858 100 50 100Z" fill="#20BBE6"/>
<path d="M94 50C94 74.3005 74.3005 94 50 94V100C77.6142 100 100 77.6142 100 50H94ZM50 6C74.3005 6 94 25.6995 94 50H100C100 22.3858 77.6142 0 50 0V6ZM6 50C6 25.6995 25.6995 6 50 6V0C22.3858 0 0 22.3858 0 50H6ZM50 94C25.6995 94 6 74.3005 6 50H0C0 77.6142 22.3858 100 50 100V94ZM97 50C97 75.9574 75.9574 97 50 97V103C79.2711 103 103 79.2711 103 50H97ZM50 3C75.9574 3 97 24.0426 97 50H103C103 20.7289 79.2711 -3 50 -3V3ZM3 50C3 24.0426 24.0426 3 50 3V-3C20.7289 -3 -3 20.7289 -3 50H3ZM50 97C24.0426 97 3 75.9574 3 50H-3C-3 79.2711 20.7289 103 50 103V97Z" fill="#20BBE6" mask="url(#path-2-inside-1)"/>
<path d="M68 62.282L55.5275 49.9685L67.8275 37.5455L62.282 32L49.964 44.477L37.499 32.1725L32 37.6715L44.4815 50.0315L32.1725 62.501L37.6715 68L50.027 55.523L62.4545 67.8275L68 62.282Z" fill="#20BBE6"/>
</svg>
